Coordinates
version=1
nRows=8
nColumns=34
inDegrees=yes

Units are S.I. units (second, meters, Newtons, ...)
Angles are in degrees.

endheader
time	pelvis_tilt	pelvis_list	pelvis_rotation	pelvis_tx	pelvis_ty	pelvis_tz	hip_flexion_r	hip_adduction_r	hip_rotation_r	knee_angle_r	ankle_angle_r	subtalar_angle_r	mtp_angle_r	hip_flexion_l	hip_adduction_l	hip_rotation_l	knee_angle_l	socket_flexion	socket_adduction	socket_rotation	socket_tx	socket_ty	socket_tz	pros_ankle_rx	pros_ankle_ry	pros_ankle_rz	pros_ankle_tx	pros_ankle_ty	pros_ankle_tz	foot_flex	lumbar_extension	lumbar_bending	lumbar_rotation
      0.59583333	      0.28452884	     -4.07977597	      8.45526466	      0.02464090	      1.02223963	      0.36475242	     18.59469130	      2.49081412	    -10.93394018	      4.18499179	     13.12426801	      6.63906037	      2.74250791	    -20.89037817	     -7.41813094	      1.99312224	      2.39180617	     11.53502486	      0.00000000	      0.00000000	      0.00000000	     -0.00908900	      0.00000000	      0.00000000	      0.00000000	      0.00000000	      0.00000000	      0.00000000	      0.00000000	     14.37244096	    -20.30682993	     -1.19597109	     -6.75238949
      0.60000000	      0.28625054	     -4.11228776	      8.62496913	      0.03064870	      1.02111205	      0.36470879	     18.78158750	      2.47688914	    -10.76380344	      3.79739962	     12.66184536	      6.60538275	      2.83809159	    -21.10787336	     -7.56514938	      2.07496804	      2.27789476	     11.69389418	      0.00000000	      0.00000000	      0.00000000	     -0.00916170	      0.00000000	      0.00000000	      0.00000000	      0.00000000	      0.00000000	      0.00000000	      0.00000000	     14.49815390	    -20.33471791	     -0.94285756	     -6.83987748
      0.60416667	      0.28592017	     -4.19554106	      8.79167573	      0.03678755	      1.02001059	      0.36473344	     18.96677732	      2.52374062	    -10.64815408	      3.37649299	     12.13595416	      6.52035005	      3.03925586	    -21.31352507	     -7.76791956	      2.10217334	      2.14657347	     11.83790873	      0.00000000	      0.00000000	      0.00000000	     -0.00925435	      0.00000000	      0.00000000	      0.00000000	      0.00000000	      0.00000000	      0.00000000	      0.00000000	     14.56483398	    -20.35714131	     -0.71103726	     -6.94383577
      0.60833333	      0.32335269	     -4.25480187	      8.98017036	      0.04297371	      1.01907044	      0.36473133	     19.05951682	      2.55892951	    -10.41910859	      2.97445168	     11.82310096	      6.53266462	      3.11546252	    -21.53276466	     -7.96066709	      2.20251516	      1.96601624	     11.98283538	      0.00000000	      0.00000000	      0.00000000	     -0.00930659	      0.00000000	      0.00000000	      0.00000000	      0.00000000	      0.00000000	      0.00000000	      0.00000000	     14.62255918	    -20.30824974	     -0.59204469	     -6.96890016
      0.61250000	      0.19479533	     -4.39782569	      9.17091707	      0.04899570	      1.01777157	      0.36467101	     19.41601306	      2.61668479	    -10.34681751	      2.50739599	     10.40263514	      5.83713426	      7.53797863	    -21.34963642	     -8.20079518	      2.22357753	      1.22708613	     11.81858707	      0.00000000	      0.00000000	      0.00000000	     -0.00989307	      0.00000000	      0.00000000	      0.00000000	      0.00000000	      0.00000000	      0.00000000	      0.00000000	     14.64873665	    -20.21498169	     -0.21487860	     -7.16483120
      0.61666667	      0.27544804	     -4.47995357	      9.31831073	      0.05517445	      1.01699142	      0.36474843	     19.52472749	      2.68321980	    -10.12876856	      1.90978851	      9.98775741	      5.88469390	      7.54873534	    -21.59266112	     -8.40999155	      2.29492948	      1.02728822	     12.00350390	      0.00000000	      0.00000000	      0.00000000	     -0.00996362	      0.00000000	      0.00000000	      0.00000000	      0.00000000	      0.00000000	      0.00000000	      0.00000000	     14.69373278	    -20.19986375	     -0.05481224	     -7.15705675
      0.62083333	      0.35078890	     -4.61558893	      9.35733827	      0.06129430	      1.01616468	      0.36494618	     19.82139659	      2.80255409	    -10.11276083	      0.99105849	      9.23817940	      5.84354124	      7.60523298	    -21.81399174	     -8.61733593	      2.11629383	      0.76722021	     12.19027048	      0.00000000	      0.00000000	      0.00000000	     -0.01025007	      0.00000000	      0.00000000	      0.00000000	      0.00000000	      0.00000000	      0.00000000	      0.00000000	     14.68465243	    -20.36608358	      0.30574525	     -7.11650330
      0.62500000	      0.43504950	     -4.78397048	      9.41287802	      0.06744690	      1.01541813	      0.36517101	     20.07198554	      2.96337352	    -10.06243552	      0.10496149	      8.59875156	      5.80927250	      7.73659317	    -22.00364310	     -8.87192769	      1.99215154	      0.42521431	     12.34521216	      0.00000000	      0.00000000	      0.00000000	     -0.01060974	      0.00000000	      0.00000000	      0.00000000	      0.00000000	      0.00000000	      0.00000000	      0.00000000	     14.65901096	    -20.45823293	      0.60489679	     -7.03071176
